<svg xmlns="http://www.w3.org/2000/svg" viewBox="0 0 32 32">
  <rect width="32" height="32" rx="8" fill="#2563eb" />
  <svg x="4" y="4" width="24" height="24" viewBox="0 0 24 24" fill="none" stroke="#ffffff" stroke-width="2" stroke-linecap="round" stroke-linejoin="round">
    <path d="M9.5 3.5C4.5 3.5 1.5 8 1.5 13C1.5 18 5 21.5 9.5 21.5C14 21.5 17.5 19 19 16.5C20.5 14 20.5 9.5 19 7C17.5 4.5 13.5 3.5 9.5 3.5Z" />
    <path d="M6.5 8V16L10.5 8V16" stroke-linecap="square" />
    <path d="M13.5 8V13.5C13.5 15 14.5 16 16 16C17.5 16 18.5 15 18.5 13.5V8" />
  </svg>
</svg>
